<svg id="Layer_1" data-name="Layer 1" xmlns="http://www.w3.org/2000/svg" viewBox="0 0 609.45 807.87"><defs><style>.cls-1{fill:#164193;}</style></defs><path class="cls-1" d="M246.46,442V400.51h6.69v3.05a8.14,8.14,0,0,1,4.13-3,13.9,13.9,0,0,1,4.38-.71,14.76,14.76,0,0,1,10.86,4.59,15.72,15.72,0,0,1,4.53,11.26,16,16,0,0,1-1.16,6,15.4,15.4,0,0,1-8.16,8.52,14.69,14.69,0,0,1-10.44.4c-1.46-.47-3.51-1.64-4.24-2.93V442h-6.59m15-36.31a8.42,8.42,0,0,0-6.31,2.54,10.22,10.22,0,0,0-2.48,7.17c0,2.82.67,5.58,2.41,7.44a8.28,8.28,0,0,0,6.43,2.52,8.5,8.5,0,0,0,6.19-2.63,9.81,9.81,0,0,0,2.66-7,10.57,10.57,0,0,0-2.61-7.4,8.49,8.49,0,0,0-6.29-2.62"/><polyline class="cls-1" points="322.92 442.04 328.57 428.94 315.62 400.51 322.67 400.51 331.87 421.86 340.36 400.51 347.45 400.51 329.84 442.04 322.92 442.04"/><path class="cls-1" d="M305,430.79v-3.15a8.37,8.37,0,0,1-4.24,2.93,14.14,14.14,0,0,1-4.68.77,14,14,0,0,1-5.77-1.17,15.54,15.54,0,0,1-8.15-8.51,15.92,15.92,0,0,1-1.17-6,15.68,15.68,0,0,1,4.53-11.26,14.79,14.79,0,0,1,10.87-4.59,13.79,13.79,0,0,1,4.37.71,8.08,8.08,0,0,1,4.14,3v-3.05h6.68v30.28H305m-14.7-22.44a10.57,10.57,0,0,0-2.6,7.4,9.81,9.81,0,0,0,2.66,7,8.5,8.5,0,0,0,6.19,2.63,8.24,8.24,0,0,0,6.42-2.52c1.75-1.86,2.41-4.62,2.41-7.44a10.25,10.25,0,0,0-2.46-7.17,8.4,8.4,0,0,0-6.32-2.54,8.49,8.49,0,0,0-6.3,2.62"/><polyline class="cls-1" points="354.46 381.3 354.11 361.08 360.5 361.08 360.5 386.59 351.32 386.59 344.97 365.65 344.8 365.65 345.17 386.59 338.84 386.59 338.84 361.08 348.39 361.08 354.32 381.3 354.46 381.3"/><polyline class="cls-1" points="238.57 363.46 235.05 386.82 228.09 386.82 232.86 361.08 244.33 361.08 249.09 386.82 242.16 386.82 238.72 363.46 238.57 363.46"/><polyline class="cls-1" points="268.6 380.78 271.78 361.08 282.28 361.08 282.85 386.82 276.41 386.82 276.23 363.68 276.1 363.68 271.8 386.82 265.28 386.82 260.95 363.68 260.81 363.68 260.65 386.82 254.21 386.82 254.79 361.08 265.3 361.08 268.47 380.78 268.6 380.78"/><path class="cls-1" d="M322.6,383a2.31,2.31,0,0,0,2.48-1.84,6.25,6.25,0,0,0,.05-1V361.08h6.54v18.46c0,.48-.05,1.44-.07,1.7-.44,4.81-4.26,6.36-9,6.36s-8.53-1.55-9-6.36a16.56,16.56,0,0,1-.06-1.7V361.08h6.52v19.05a4.53,4.53,0,0,0,.05,1A2.3,2.3,0,0,0,322.6,383"/><path class="cls-1" d="M217.25,379.56a3.38,3.38,0,0,1,.05,1.91,2.23,2.23,0,0,1-2.52,1.74,2.3,2.3,0,0,1-2.57-2.34l0-2.5H205.3v2c0,5.76,4.51,7.48,9.34,7.48s8.51-1.58,9.11-5.87a12.48,12.48,0,0,0,0-4.23c-1.08-5.41-10.86-7-11.59-10a3,3,0,0,1,0-1.35,2.11,2.11,0,0,1,2.35-1.74,2.2,2.2,0,0,1,2.4,2.32v1.61h6.43v-1.81c0-5.61-5-6.49-8.7-6.49-4.57,0-8.31,1.52-9,5.73a9.57,9.57,0,0,0,0,3.45c1.13,5.28,10.28,6.79,11.61,10.12"/><path class="cls-1" d="M301,379.53a3.46,3.46,0,0,1,.06,1.88,2.2,2.2,0,0,1-2.48,1.7A2.28,2.28,0,0,1,296,380.8v-2.48h-6.84v2c0,5.7,4.47,7.39,9.27,7.39,4.6,0,8.39-1.56,9-5.82a12.27,12.27,0,0,0,0-4.2c-1.07-5.32-10.75-6.9-11.46-9.91a3.3,3.3,0,0,1,0-1.32,2.1,2.1,0,0,1,2.33-1.71,2.17,2.17,0,0,1,2.38,2.29v1.59H307v-1.79c0-5.55-5-6.42-8.59-6.42-4.53,0-8.25,1.48-8.91,5.66a8.13,8.13,0,0,0,.05,3.43c1.11,5.23,10.16,6.73,11.47,10"/><path class="cls-1" d="M376.32,382.7a2.4,2.4,0,0,0,2.63-1.86,7.7,7.7,0,0,0,.06-1v-3.73h-2.63v-3.77h9.12v6.91a16.49,16.49,0,0,1-.1,1.71c-.42,4.66-4.49,6.35-9.07,6.35s-8.6-1.69-9-6.35a12.25,12.25,0,0,1-.1-1.71V368.44a13.18,13.18,0,0,1,.12-1.69c.56-4.84,4.45-6.37,9-6.37s8.59,1.52,9.05,6.37a10.92,10.92,0,0,1,.05,1.69v.84H379v-1.44a5.26,5.26,0,0,0-.09-1,2.36,2.36,0,0,0-2.58-1.86,2.39,2.39,0,0,0-2.55,1.86,5.79,5.79,0,0,0-.1,1.22v11.78c0,.32,0,.69.05,1a2.4,2.4,0,0,0,2.64,1.86"/></svg>